<svg xmlns="http://www.w3.org/2000/svg" width="26" height="26" viewBox="0 0 512 512" version="1.1"><path d="M 89.776 62.206 C 73.867 75.775, 56.489 95.258, 44.470 113 L 38.712 121.500 147.356 121.754 C 207.110 121.894, 304.890 121.894, 364.644 121.754 L 473.288 121.500 467.530 113 C 455.511 95.258, 438.133 75.775, 422.224 62.206 L 414.949 56 256 56 L 97.051 56 89.776 62.206 M 239.941 173.750 L 224.490 200.500 192.729 201 L 160.969 201.500 176.484 228.330 C 185.018 243.086, 192 255.538, 192 256 C 192 256.462, 185.018 268.914, 176.484 283.670 L 160.969 310.500 192.729 311 L 224.490 311.500 239.941 338.250 C 248.439 352.962, 255.670 365, 256.009 365 C 256.348 365, 263.579 352.962, 272.078 338.250 L 287.530 311.500 319.277 311 L 351.025 310.500 335.512 283.633 C 326.981 268.856, 320 256.421, 320 256 C 320 255.579, 326.981 243.144, 335.512 228.367 L 351.025 201.500 319.277 201 L 287.530 200.500 272.078 173.750 C 263.579 159.037, 256.348 147, 256.009 147 C 255.670 147, 248.439 159.037, 239.941 173.750 M 251.981 193.232 C 250.066 196.659, 248.350 199.809, 248.167 200.232 C 247.983 200.654, 251.508 201, 256 201 C 260.492 201, 264.017 200.654, 263.833 200.232 C 262.627 197.451, 256.440 187, 256 187 C 255.704 187, 253.895 189.804, 251.981 193.232 M 196.167 221.750 C 197.437 224.609, 203.602 234.979, 204.037 234.988 C 204.596 235, 212 222.500, 212 221.544 C 212 221.245, 208.363 221, 203.917 221 C 199.471 221, 195.983 221.338, 196.167 221.750 M 230.713 230.230 C 227.728 235.328, 223.156 243.215, 220.553 247.755 L 215.820 256.009 225.803 273.255 L 235.786 290.500 256.017 290.500 L 276.249 290.500 286.228 273.250 L 296.208 256 286.229 238.750 L 276.250 221.500 256.196 221.230 L 236.141 220.959 230.713 230.230 M 300 221.544 C 300 222.500, 307.404 235, 307.963 234.988 C 308.398 234.979, 314.563 224.609, 315.833 221.750 C 316.017 221.338, 312.529 221, 308.083 221 C 303.637 221, 300 221.245, 300 221.544 M 200 283.262 C 198.075 286.693, 196.350 289.837, 196.167 290.250 C 195.983 290.663, 199.471 291, 203.917 291 C 208.363 291, 212 290.755, 212 290.456 C 212 289.500, 204.596 277, 204.037 277.012 C 203.742 277.018, 201.925 279.831, 200 283.262 M 303.713 283.456 C 301.671 287.006, 300 290.156, 300 290.456 C 300 290.755, 303.637 291, 308.083 291 C 312.529 291, 316.017 290.663, 315.833 290.250 C 314.563 287.391, 308.398 277.021, 307.963 277.012 C 307.668 277.005, 305.755 279.905, 303.713 283.456 M 248.167 311.768 C 249.373 314.549, 255.560 325, 256 325 C 256.440 325, 262.627 314.549, 263.833 311.768 C 264.017 311.346, 260.492 311, 256 311 C 251.508 311, 247.983 311.346, 248.167 311.768 M 40.098 392.250 C 47.038 405.618, 71.977 434.488, 89.776 449.758 L 97.051 456 256 456 L 414.949 456 422.224 449.794 C 439.727 434.865, 464.940 405.660, 471.902 392.250 L 473.070 390 256 390 L 38.930 390 40.098 392.250" stroke="none" fill="#0052b4" fill-rule="evenodd"/><path d="M 231.500 0.675 C 205.487 3.925, 189.226 7.708, 167.913 15.467 C 144.381 24.034, 114.121 40.636, 100.500 52.454 L 96.500 55.925 255.905 55.962 L 415.310 56 413.455 53.951 C 409.229 49.281, 383.481 33.224, 368.458 25.890 C 342.585 13.259, 314.835 4.959, 287.030 1.536 C 275.680 0.138, 240.197 -0.412, 231.500 0.675 M 34.754 126.248 C 28.189 137.692, 19.739 155.793, 15.546 167.392 C 4.354 198.351, -0.016 223.316, 0.034 256 C 0.084 288.873, 4.711 315.280, 15.609 344.891 C 18.794 353.544, 29.643 376.584, 35.086 386.252 L 37.198 390.004 256.349 389.752 L 475.500 389.500 484.554 371.500 C 498.029 344.711, 507.397 314.420, 510.068 289 C 510.674 283.225, 511.582 277.719, 512.085 276.764 C 512.588 275.809, 512.964 265.459, 512.921 253.764 C 512.878 242.069, 512.564 233.175, 512.223 234 C 511.883 234.825, 511.069 231, 510.414 225.500 C 506.823 195.352, 498.822 169.049, 484.619 140.702 L 475.500 122.500 256.346 122.248 L 37.193 121.996 34.754 126.248 M 239.796 172.711 L 224.326 199.500 192.163 199.764 C 174.473 199.909, 160 200.275, 160 200.578 C 160 200.880, 166.975 213.178, 175.500 227.905 C 184.025 242.632, 191 255.275, 191 256 C 191 256.725, 184.025 269.368, 175.500 284.095 C 166.975 298.822, 160 311.120, 160 311.422 C 160 311.725, 174.488 312.091, 192.195 312.236 L 224.391 312.500 239.650 339 C 248.043 353.575, 255.401 365.500, 256 365.500 C 256.599 365.500, 263.957 353.575, 272.350 339 L 287.609 312.500 319.805 312.236 C 337.512 312.091, 352 311.725, 352 311.422 C 352 311.120, 345.025 298.822, 336.500 284.095 C 327.975 269.368, 321 256.726, 321 256.002 C 321 255.278, 327.975 242.620, 336.500 227.873 C 345.025 213.126, 352 200.828, 352 200.544 C 352 200.260, 337.512 199.909, 319.805 199.764 L 287.609 199.500 272.360 173.019 C 263.973 158.454, 256.696 146.399, 256.189 146.230 C 255.681 146.060, 248.305 157.977, 239.796 172.711 M 254.734 189.697 C 254.487 190.139, 253.053 192.637, 251.548 195.250 L 248.810 200 255.988 200 L 263.165 200 260.146 194.771 C 257.160 189.598, 255.605 188.140, 254.734 189.697 M 199.617 226.750 C 204.113 234.657, 204.172 234.666, 207.843 227.989 L 211.135 222 204.026 222 L 196.916 222 199.617 226.750 M 226.592 238.572 C 221.317 247.686, 217 255.529, 217 256 C 217 256.471, 221.317 264.314, 226.592 273.428 L 236.185 290 256 290 L 275.815 290 285.408 273.428 C 290.683 264.314, 295 256.471, 295 256 C 295 255.529, 290.683 247.686, 285.408 238.572 L 275.815 222 256 222 L 236.185 222 226.592 238.572 M 304.157 227.989 C 307.828 234.666, 307.887 234.657, 312.383 226.750 L 315.084 222 307.974 222 L 300.865 222 304.157 227.989 M 0.426 255.500 C 0.427 267.600, 0.571 272.413, 0.747 266.195 C 0.923 259.977, 0.922 250.077, 0.746 244.195 C 0.569 238.313, 0.425 243.400, 0.426 255.500 M 203.317 279.223 C 202.782 279.925, 201.123 282.637, 199.630 285.250 L 196.916 290 203.984 290 L 211.051 290 209.438 286.879 C 205.666 279.586, 204.321 277.904, 203.317 279.223 M 304.157 284.011 L 300.865 290 307.974 290 L 315.084 290 312.383 285.250 C 307.887 277.343, 307.828 277.334, 304.157 284.011 M 251.866 317.250 C 253.533 320.137, 255.393 322.500, 256 322.500 C 256.607 322.500, 258.467 320.137, 260.134 317.250 L 263.165 312 256 312 L 248.835 312 251.866 317.250 M 99.164 458.452 C 104.777 463.656, 124.096 476.101, 137 482.826 C 159.820 494.718, 181.182 502.308, 206 507.344 C 223.234 510.841, 231.163 511.500, 256 511.500 C 280.837 511.500, 288.766 510.841, 306 507.344 C 340.175 500.410, 371.443 487.318, 399.847 468.052 C 404.606 464.824, 410.075 460.810, 412 459.132 L 415.500 456.081 256.010 456.041 L 96.520 456 99.164 458.452" stroke="none" fill="#f0f0f0" fill-rule="evenodd"/><path d="M 231.500 0.675 C 205.487 3.925, 189.226 7.708, 167.913 15.467 C 144.381 24.034, 114.121 40.636, 100.500 52.454 L 96.500 55.925 255.905 55.962 L 415.310 56 413.455 53.951 C 409.229 49.281, 383.481 33.224, 368.458 25.890 C 342.585 13.259, 314.835 4.959, 287.030 1.536 C 275.680 0.138, 240.197 -0.412, 231.500 0.675 M 34.754 126.248 C 28.189 137.692, 19.739 155.793, 15.546 167.392 C 4.354 198.351, -0.016 223.316, 0.034 256 C 0.084 288.873, 4.711 315.280, 15.609 344.891 C 18.794 353.544, 29.643 376.584, 35.086 386.252 L 37.198 390.004 256.349 389.752 L 475.500 389.500 484.554 371.500 C 498.029 344.711, 507.397 314.420, 510.068 289 C 510.674 283.225, 511.582 277.719, 512.085 276.764 C 512.588 275.809, 512.964 265.459, 512.921 253.764 C 512.878 242.069, 512.564 233.175, 512.223 234 C 511.883 234.825, 511.069 231, 510.414 225.500 C 506.823 195.352, 498.822 169.049, 484.619 140.702 L 475.500 122.500 256.346 122.248 L 37.193 121.996 34.754 126.248 M 239.796 172.711 L 224.326 199.500 192.163 199.764 C 174.473 199.909, 160 200.275, 160 200.578 C 160 200.880, 166.975 213.178, 175.500 227.905 C 184.025 242.632, 191 255.275, 191 256 C 191 256.725, 184.025 269.368, 175.500 284.095 C 166.975 298.822, 160 311.120, 160 311.422 C 160 311.725, 174.488 312.091, 192.195 312.236 L 224.391 312.500 239.650 339 C 248.043 353.575, 255.401 365.500, 256 365.500 C 256.599 365.500, 263.957 353.575, 272.350 339 L 287.609 312.500 319.805 312.236 C 337.512 312.091, 352 311.725, 352 311.422 C 352 311.120, 345.025 298.822, 336.500 284.095 C 327.975 269.368, 321 256.726, 321 256.002 C 321 255.278, 327.975 242.620, 336.500 227.873 C 345.025 213.126, 352 200.828, 352 200.544 C 352 200.260, 337.512 199.909, 319.805 199.764 L 287.609 199.500 272.360 173.019 C 263.973 158.454, 256.696 146.399, 256.189 146.230 C 255.681 146.060, 248.305 157.977, 239.796 172.711 M 254.734 189.697 C 254.487 190.139, 253.053 192.637, 251.548 195.250 L 248.810 200 255.988 200 L 263.165 200 260.146 194.771 C 257.160 189.598, 255.605 188.140, 254.734 189.697 M 199.617 226.750 C 204.113 234.657, 204.172 234.666, 207.843 227.989 L 211.135 222 204.026 222 L 196.916 222 199.617 226.750 M 226.592 238.572 C 221.317 247.686, 217 255.529, 217 256 C 217 256.471, 221.317 264.314, 226.592 273.428 L 236.185 290 256 290 L 275.815 290 285.408 273.428 C 290.683 264.314, 295 256.471, 295 256 C 295 255.529, 290.683 247.686, 285.408 238.572 L 275.815 222 256 222 L 236.185 222 226.592 238.572 M 304.157 227.989 C 307.828 234.666, 307.887 234.657, 312.383 226.750 L 315.084 222 307.974 222 L 300.865 222 304.157 227.989 M 0.426 255.500 C 0.427 267.600, 0.571 272.413, 0.747 266.195 C 0.923 259.977, 0.922 250.077, 0.746 244.195 C 0.569 238.313, 0.425 243.400, 0.426 255.500 M 203.317 279.223 C 202.782 279.925, 201.123 282.637, 199.630 285.250 L 196.916 290 203.984 290 L 211.051 290 209.438 286.879 C 205.666 279.586, 204.321 277.904, 203.317 279.223 M 304.157 284.011 L 300.865 290 307.974 290 L 315.084 290 312.383 285.250 C 307.887 277.343, 307.828 277.334, 304.157 284.011 M 251.866 317.250 C 253.533 320.137, 255.393 322.500, 256 322.500 C 256.607 322.500, 258.467 320.137, 260.134 317.250 L 263.165 312 256 312 L 248.835 312 251.866 317.250 M 99.164 458.452 C 104.777 463.656, 124.096 476.101, 137 482.826 C 159.820 494.718, 181.182 502.308, 206 507.344 C 223.234 510.841, 231.163 511.500, 256 511.500 C 280.837 511.500, 288.766 510.841, 306 507.344 C 340.175 500.410, 371.443 487.318, 399.847 468.052 C 404.606 464.824, 410.075 460.810, 412 459.132 L 415.500 456.081 256.010 456.041 L 96.520 456 99.164 458.452" stroke="none" fill="#f0f0f0" fill-rule="evenodd"/><path d="M 89.776 62.206 C 73.867 75.775, 56.489 95.258, 44.470 113 L 38.712 121.500 147.356 121.754 C 207.110 121.894, 304.890 121.894, 364.644 121.754 L 473.288 121.500 467.530 113 C 455.511 95.258, 438.133 75.775, 422.224 62.206 L 414.949 56 256 56 L 97.051 56 89.776 62.206 M 239.941 173.750 L 224.490 200.500 192.729 201 L 160.969 201.500 176.484 228.330 C 185.018 243.086, 192 255.538, 192 256 C 192 256.462, 185.018 268.914, 176.484 283.670 L 160.969 310.500 192.729 311 L 224.490 311.500 239.941 338.250 C 248.439 352.962, 255.670 365, 256.009 365 C 256.348 365, 263.579 352.962, 272.078 338.250 L 287.530 311.500 319.277 311 L 351.025 310.500 335.512 283.633 C 326.981 268.856, 320 256.421, 320 256 C 320 255.579, 326.981 243.144, 335.512 228.367 L 351.025 201.500 319.277 201 L 287.530 200.500 272.078 173.750 C 263.579 159.037, 256.348 147, 256.009 147 C 255.670 147, 248.439 159.037, 239.941 173.750 M 251.981 193.232 C 250.066 196.659, 248.350 199.809, 248.167 200.232 C 247.983 200.654, 251.508 201, 256 201 C 260.492 201, 264.017 200.654, 263.833 200.232 C 262.627 197.451, 256.440 187, 256 187 C 255.704 187, 253.895 189.804, 251.981 193.232 M 196.167 221.750 C 197.437 224.609, 203.602 234.979, 204.037 234.988 C 204.596 235, 212 222.500, 212 221.544 C 212 221.245, 208.363 221, 203.917 221 C 199.471 221, 195.983 221.338, 196.167 221.750 M 230.713 230.230 C 227.728 235.328, 223.156 243.215, 220.553 247.755 L 215.820 256.009 225.803 273.255 L 235.786 290.500 256.017 290.500 L 276.249 290.500 286.228 273.250 L 296.208 256 286.229 238.750 L 276.250 221.500 256.196 221.230 L 236.141 220.959 230.713 230.230 M 300 221.544 C 300 222.500, 307.404 235, 307.963 234.988 C 308.398 234.979, 314.563 224.609, 315.833 221.750 C 316.017 221.338, 312.529 221, 308.083 221 C 303.637 221, 300 221.245, 300 221.544 M 200 283.262 C 198.075 286.693, 196.350 289.837, 196.167 290.250 C 195.983 290.663, 199.471 291, 203.917 291 C 208.363 291, 212 290.755, 212 290.456 C 212 289.500, 204.596 277, 204.037 277.012 C 203.742 277.018, 201.925 279.831, 200 283.262 M 303.713 283.456 C 301.671 287.006, 300 290.156, 300 290.456 C 300 290.755, 303.637 291, 308.083 291 C 312.529 291, 316.017 290.663, 315.833 290.250 C 314.563 287.391, 308.398 277.021, 307.963 277.012 C 307.668 277.005, 305.755 279.905, 303.713 283.456 M 248.167 311.768 C 249.373 314.549, 255.560 325, 256 325 C 256.440 325, 262.627 314.549, 263.833 311.768 C 264.017 311.346, 260.492 311, 256 311 C 251.508 311, 247.983 311.346, 248.167 311.768 M 40.098 392.250 C 47.038 405.618, 71.977 434.488, 89.776 449.758 L 97.051 456 256 456 L 414.949 456 422.224 449.794 C 439.727 434.865, 464.940 405.660, 471.902 392.250 L 473.070 390 256 390 L 38.930 390 40.098 392.250" stroke="none" fill="#0052b4" fill-rule="evenodd"/><path d="M 231.500 0.675 C 205.487 3.925, 189.226 7.708, 167.913 15.467 C 144.381 24.034, 114.121 40.636, 100.500 52.454 L 96.500 55.925 255.905 55.962 L 415.310 56 413.455 53.951 C 409.229 49.281, 383.481 33.224, 368.458 25.890 C 342.585 13.259, 314.835 4.959, 287.030 1.536 C 275.680 0.138, 240.197 -0.412, 231.500 0.675 M 34.754 126.248 C 28.189 137.692, 19.739 155.793, 15.546 167.392 C 4.354 198.351, -0.016 223.316, 0.034 256 C 0.084 288.873, 4.711 315.280, 15.609 344.891 C 18.794 353.544, 29.643 376.584, 35.086 386.252 L 37.198 390.004 256.349 389.752 L 475.500 389.500 484.554 371.500 C 498.029 344.711, 507.397 314.420, 510.068 289 C 510.674 283.225, 511.582 277.719, 512.085 276.764 C 512.588 275.809, 512.964 265.459, 512.921 253.764 C 512.878 242.069, 512.564 233.175, 512.223 234 C 511.883 234.825, 511.069 231, 510.414 225.500 C 506.823 195.352, 498.822 169.049, 484.619 140.702 L 475.500 122.500 256.346 122.248 L 37.193 121.996 34.754 126.248 M 239.796 172.711 L 224.326 199.500 192.163 199.764 C 174.473 199.909, 160 200.275, 160 200.578 C 160 200.880, 166.975 213.178, 175.500 227.905 C 184.025 242.632, 191 255.275, 191 256 C 191 256.725, 184.025 269.368, 175.500 284.095 C 166.975 298.822, 160 311.120, 160 311.422 C 160 311.725, 174.488 312.091, 192.195 312.236 L 224.391 312.500 239.650 339 C 248.043 353.575, 255.401 365.500, 256 365.500 C 256.599 365.500, 263.957 353.575, 272.350 339 L 287.609 312.500 319.805 312.236 C 337.512 312.091, 352 311.725, 352 311.422 C 352 311.120, 345.025 298.822, 336.500 284.095 C 327.975 269.368, 321 256.726, 321 256.002 C 321 255.278, 327.975 242.620, 336.500 227.873 C 345.025 213.126, 352 200.828, 352 200.544 C 352 200.260, 337.512 199.909, 319.805 199.764 L 287.609 199.500 272.360 173.019 C 263.973 158.454, 256.696 146.399, 256.189 146.230 C 255.681 146.060, 248.305 157.977, 239.796 172.711 M 254.734 189.697 C 254.487 190.139, 253.053 192.637, 251.548 195.250 L 248.810 200 255.988 200 L 263.165 200 260.146 194.771 C 257.160 189.598, 255.605 188.140, 254.734 189.697 M 199.617 226.750 C 204.113 234.657, 204.172 234.666, 207.843 227.989 L 211.135 222 204.026 222 L 196.916 222 199.617 226.750 M 226.592 238.572 C 221.317 247.686, 217 255.529, 217 256 C 217 256.471, 221.317 264.314, 226.592 273.428 L 236.185 290 256 290 L 275.815 290 285.408 273.428 C 290.683 264.314, 295 256.471, 295 256 C 295 255.529, 290.683 247.686, 285.408 238.572 L 275.815 222 256 222 L 236.185 222 226.592 238.572 M 304.157 227.989 C 307.828 234.666, 307.887 234.657, 312.383 226.750 L 315.084 222 307.974 222 L 300.865 222 304.157 227.989 M 0.426 255.500 C 0.427 267.600, 0.571 272.413, 0.747 266.195 C 0.923 259.977, 0.922 250.077, 0.746 244.195 C 0.569 238.313, 0.425 243.400, 0.426 255.500 M 203.317 279.223 C 202.782 279.925, 201.123 282.637, 199.630 285.250 L 196.916 290 203.984 290 L 211.051 290 209.438 286.879 C 205.666 279.586, 204.321 277.904, 203.317 279.223 M 304.157 284.011 L 300.865 290 307.974 290 L 315.084 290 312.383 285.250 C 307.887 277.343, 307.828 277.334, 304.157 284.011 M 251.866 317.250 C 253.533 320.137, 255.393 322.500, 256 322.500 C 256.607 322.500, 258.467 320.137, 260.134 317.250 L 263.165 312 256 312 L 248.835 312 251.866 317.250 M 99.164 458.452 C 104.777 463.656, 124.096 476.101, 137 482.826 C 159.820 494.718, 181.182 502.308, 206 507.344 C 223.234 510.841, 231.163 511.500, 256 511.500 C 280.837 511.500, 288.766 510.841, 306 507.344 C 340.175 500.410, 371.443 487.318, 399.847 468.052 C 404.606 464.824, 410.075 460.810, 412 459.132 L 415.500 456.081 256.010 456.041 L 96.520 456 99.164 458.452" stroke="none" fill="#f0f0f0" fill-rule="evenodd"/><path d="M 89.776 62.206 C 73.867 75.775, 56.489 95.258, 44.470 113 L 38.712 121.500 147.356 121.754 C 207.110 121.894, 304.890 121.894, 364.644 121.754 L 473.288 121.500 467.530 113 C 455.511 95.258, 438.133 75.775, 422.224 62.206 L 414.949 56 256 56 L 97.051 56 89.776 62.206 M 239.941 173.750 L 224.490 200.500 192.729 201 L 160.969 201.500 176.484 228.330 C 185.018 243.086, 192 255.538, 192 256 C 192 256.462, 185.018 268.914, 176.484 283.670 L 160.969 310.500 192.729 311 L 224.490 311.500 239.941 338.250 C 248.439 352.962, 255.670 365, 256.009 365 C 256.348 365, 263.579 352.962, 272.078 338.250 L 287.530 311.500 319.277 311 L 351.025 310.500 335.512 283.633 C 326.981 268.856, 320 256.421, 320 256 C 320 255.579, 326.981 243.144, 335.512 228.367 L 351.025 201.500 319.277 201 L 287.530 200.500 272.078 173.750 C 263.579 159.037, 256.348 147, 256.009 147 C 255.670 147, 248.439 159.037, 239.941 173.750 M 251.981 193.232 C 250.066 196.659, 248.350 199.809, 248.167 200.232 C 247.983 200.654, 251.508 201, 256 201 C 260.492 201, 264.017 200.654, 263.833 200.232 C 262.627 197.451, 256.440 187, 256 187 C 255.704 187, 253.895 189.804, 251.981 193.232 M 196.167 221.750 C 197.437 224.609, 203.602 234.979, 204.037 234.988 C 204.596 235, 212 222.500, 212 221.544 C 212 221.245, 208.363 221, 203.917 221 C 199.471 221, 195.983 221.338, 196.167 221.750 M 230.713 230.230 C 227.728 235.328, 223.156 243.215, 220.553 247.755 L 215.820 256.009 225.803 273.255 L 235.786 290.500 256.017 290.500 L 276.249 290.500 286.228 273.250 L 296.208 256 286.229 238.750 L 276.250 221.500 256.196 221.230 L 236.141 220.959 230.713 230.230 M 300 221.544 C 300 222.500, 307.404 235, 307.963 234.988 C 308.398 234.979, 314.563 224.609, 315.833 221.750 C 316.017 221.338, 312.529 221, 308.083 221 C 303.637 221, 300 221.245, 300 221.544 M 200 283.262 C 198.075 286.693, 196.350 289.837, 196.167 290.250 C 195.983 290.663, 199.471 291, 203.917 291 C 208.363 291, 212 290.755, 212 290.456 C 212 289.500, 204.596 277, 204.037 277.012 C 203.742 277.018, 201.925 279.831, 200 283.262 M 303.713 283.456 C 301.671 287.006, 300 290.156, 300 290.456 C 300 290.755, 303.637 291, 308.083 291 C 312.529 291, 316.017 290.663, 315.833 290.250 C 314.563 287.391, 308.398 277.021, 307.963 277.012 C 307.668 277.005, 305.755 279.905, 303.713 283.456 M 248.167 311.768 C 249.373 314.549, 255.560 325, 256 325 C 256.440 325, 262.627 314.549, 263.833 311.768 C 264.017 311.346, 260.492 311, 256 311 C 251.508 311, 247.983 311.346, 248.167 311.768 M 40.098 392.250 C 47.038 405.618, 71.977 434.488, 89.776 449.758 L 97.051 456 256 456 L 414.949 456 422.224 449.794 C 439.727 434.865, 464.940 405.660, 471.902 392.250 L 473.070 390 256 390 L 38.930 390 40.098 392.250" stroke="none" fill="#0052b4" fill-rule="evenodd"/><path d="M 84.942 65.370 C 74.239 75.022, 67.927 81.609, 56.548 95 C 50.813 101.748, 37.627 120.960, 38.281 121.614 C 38.543 121.876, 39.894 120.158, 41.283 117.795 C 45.388 110.814, 56.860 95.875, 66.340 85.167 C 73.721 76.829, 92.180 59.361, 96.299 56.815 C 96.928 56.427, 97.204 55.871, 96.913 55.580 C 96.622 55.289, 91.235 59.694, 84.942 65.370 M 415.040 55.651 C 415.062 56.118, 417.379 58.300, 420.188 60.500 C 434.204 71.476, 456.418 96.209, 468.034 113.773 C 470.996 118.251, 473.583 121.750, 473.784 121.549 C 474.605 120.728, 461.841 102.704, 452.151 91 C 442.919 79.849, 414.924 53.183, 415.040 55.651 M 253.980 148.250 C 252.933 150.411, 252.951 150.423, 254.445 148.559 C 255.984 146.637, 256.016 146.637, 257.555 148.559 C 259.049 150.423, 259.067 150.411, 258.020 148.250 C 257.420 147.012, 256.511 146, 256 146 C 255.489 146, 254.580 147.012, 253.980 148.250 M 254.721 188.286 C 254.433 189.035, 254.966 189.571, 256 189.571 C 257.034 189.571, 257.567 189.035, 257.279 188.286 C 257.008 187.579, 256.432 187, 256 187 C 255.568 187, 254.992 187.579, 254.721 188.286 M 225 198 C 223.964 199.936, 222.906 200, 191.965 200 C 174.384 200, 160 200.364, 160 200.809 C 160 201.254, 160.700 202.491, 161.555 203.559 C 163.050 205.425, 163.069 205.414, 162.028 203.264 L 160.945 201.028 192.601 200.764 C 224.183 200.501, 224.260 200.495, 225.750 198.250 C 226.572 197.012, 226.980 196, 226.657 196 C 226.334 196, 225.589 196.900, 225 198 M 248.667 198.667 C 246.893 200.441, 248.651 201, 256 201 C 263.419 201, 265.666 200.148, 262.845 198.405 C 262.130 197.962, 261.962 198.130, 262.405 198.845 C 262.918 199.677, 261.126 200, 256 200 C 251.509 200, 249.110 199.631, 249.500 199 C 250.199 197.868, 249.675 197.658, 248.667 198.667 M 286.921 199.250 C 288.132 200.851, 290.912 201, 319.658 201 L 351.070 201 349.980 203.250 C 348.933 205.411, 348.951 205.423, 350.445 203.559 C 351.300 202.491, 352 201.254, 352 200.809 C 352 200.364, 337.690 200, 320.200 200 C 296.174 200, 288.057 199.694, 286.998 198.750 C 285.806 197.687, 285.794 197.761, 286.921 199.250 M 196 221.941 C 196 222.459, 196.520 223.203, 197.155 223.595 C 197.870 224.038, 198.038 223.870, 197.595 223.155 C 197.082 222.323, 198.868 222, 203.976 222 C 210.990 222, 211.058 222.026, 209.980 224.250 C 208.933 226.411, 208.951 226.423, 210.445 224.559 C 211.300 223.491, 212 222.254, 212 221.809 C 212 221.364, 208.400 221, 204 221 C 199.600 221, 196 221.423, 196 221.941 M 235.655 221.750 C 235.400 222.162, 244.555 222.500, 256 222.500 C 267.445 222.500, 276.600 222.162, 276.345 221.750 C 276.091 221.338, 266.935 221, 256 221 C 245.065 221, 235.909 221.338, 235.655 221.750 M 300 221.809 C 300 222.254, 300.700 223.491, 301.555 224.559 C 303.049 226.423, 303.067 226.411, 302.020 224.250 C 300.942 222.026, 301.010 222, 308.024 222 C 313.132 222, 314.918 222.323, 314.405 223.155 C 313.962 223.870, 314.130 224.038, 314.845 223.595 C 317.666 221.852, 315.419 221, 308 221 C 303.600 221, 300 221.364, 300 221.809 M 190.500 256 C 190.500 257.545, 190.838 258.600, 191.250 258.345 C 191.662 258.091, 192 257.035, 192 256 C 192 254.965, 191.662 253.909, 191.250 253.655 C 190.838 253.400, 190.500 254.455, 190.500 256 M 320.667 253.667 C 319.764 254.570, 319.821 257.771, 320.750 258.345 C 321.163 258.600, 321.500 257.502, 321.500 255.905 C 321.500 254.307, 321.462 253, 321.417 253 C 321.371 253, 321.033 253.300, 320.667 253.667 M 209.980 287.750 C 211.058 289.974, 210.990 290, 203.976 290 C 198.868 290, 197.082 289.677, 197.595 288.845 C 198.038 288.130, 197.870 287.962, 197.155 288.405 C 194.334 290.148, 196.581 291, 204 291 C 208.400 291, 212 290.636, 212 290.191 C 212 289.746, 211.300 288.509, 210.445 287.441 C 208.951 285.577, 208.933 285.589, 209.980 287.750 M 301.035 287.934 C 300.466 288.998, 300 290.123, 300 290.434 C 300 290.745, 303.600 291, 308 291 C 315.419 291, 317.666 290.148, 314.845 288.405 C 314.130 287.962, 313.962 288.130, 314.405 288.845 C 314.918 289.677, 313.132 290, 308.024 290 C 301.240 290, 300.976 289.913, 302 288 C 302.589 286.900, 302.845 286, 302.570 286 C 302.295 286, 301.605 286.870, 301.035 287.934 M 235.655 290.250 C 235.909 290.663, 245.065 291, 256 291 C 266.935 291, 276.091 290.663, 276.345 290.250 C 276.600 289.837, 267.445 289.500, 256 289.500 C 244.555 289.500, 235.400 289.837, 235.655 290.250 M 161.035 308.934 C 160.466 309.998, 160 311.123, 160 311.434 C 160 311.745, 174.310 312, 191.800 312 C 215.826 312, 223.943 312.306, 225.002 313.250 C 226.194 314.313, 226.206 314.239, 225.079 312.750 C 223.868 311.149, 221.088 311, 192.342 311 C 161.240 311, 160.940 310.980, 162 309 C 162.589 307.900, 162.845 307, 162.570 307 C 162.295 307, 161.605 307.870, 161.035 308.934 M 349.980 308.750 L 351.070 311 319.658 311 C 290.912 311, 288.132 311.149, 286.921 312.750 C 285.794 314.239, 285.806 314.313, 286.998 313.250 C 288.057 312.306, 296.174 312, 320.200 312 C 337.690 312, 352 311.636, 352 311.191 C 352 310.746, 351.300 309.509, 350.445 308.441 C 348.951 306.577, 348.933 306.589, 349.980 308.750 M 248 311.941 C 248 312.459, 248.520 313.203, 249.155 313.595 C 249.870 314.038, 250.038 313.870, 249.595 313.155 C 249.082 312.323, 250.874 312, 256 312 C 261.126 312, 262.918 312.323, 262.405 313.155 C 261.962 313.870, 262.130 314.038, 262.845 313.595 C 265.666 311.852, 263.419 311, 256 311 C 251.600 311, 248 311.423, 248 311.941 M 254.721 323.714 C 254.992 324.421, 255.568 325, 256 325 C 256.432 325, 257.008 324.421, 257.279 323.714 C 257.567 322.965, 257.034 322.429, 256 322.429 C 254.966 322.429, 254.433 322.965, 254.721 323.714 M 253.980 363.750 C 254.580 364.988, 255.489 366, 256 366 C 256.511 366, 257.420 364.988, 258.020 363.750 C 259.067 361.589, 259.049 361.577, 257.555 363.441 C 256.016 365.363, 255.984 365.363, 254.445 363.441 C 252.951 361.577, 252.933 361.589, 253.980 363.750 M 38 390.462 C 38 392.207, 51.002 410.379, 59.820 420.957 C 69.115 432.108, 97.073 458.751, 96.960 456.349 C 96.938 455.882, 94.631 453.700, 91.834 451.500 C 77.966 440.594, 56.794 417.098, 44.525 399 C 38.011 389.391, 38 389.376, 38 390.462 M 468.295 397.834 C 456.545 415.598, 434.196 440.530, 420.188 451.500 C 417.379 453.700, 415.062 455.892, 415.040 456.371 C 414.897 459.479, 445.615 429.429, 456.309 416 C 463.971 406.379, 474.455 391.121, 473.832 390.499 C 473.605 390.272, 471.113 393.572, 468.295 397.834" stroke="none" fill="#0454b4" fill-rule="evenodd"/><path d="" stroke="none" fill="#f3f3f3" fill-rule="evenodd"/></svg>