<svg xmlns="http://www.w3.org/2000/svg" width="24" height="24" viewBox="0 0 512 512" version="1.1"><path d="M 171.503 15.008 C 163.804 17.702, 150.754 23.281, 142.503 27.405 C 128.403 34.453, 103.049 50.291, 102.326 52.503 C 102.145 53.055, 121.573 73.078, 145.499 96.999 L 189 140.491 189 75.246 C 189 13.753, 188.899 10.003, 187.250 10.055 C 186.287 10.085, 179.201 12.314, 171.503 15.008 M 323 75.246 L 323 140.491 366.501 96.999 C 390.427 73.078, 409.853 53.060, 409.671 52.514 C 408.857 50.071, 384.962 35.199, 369.500 27.512 C 354.761 20.185, 328.518 10, 324.377 10 C 323.222 10, 323 20.513, 323 75.246 M 46.714 109.750 C 33.422 128.744, 22.002 151.174, 14.576 172.873 C 12.059 180.229, 10 186.866, 10 187.623 C 10 188.778, 20.513 189, 75.246 189 L 140.491 189 97 145.500 C 73.080 121.575, 53.200 102, 52.823 102 C 52.446 102, 49.697 105.487, 46.714 109.750 M 415 145.500 L 371.509 189 436.754 189 C 491.487 189, 502 188.778, 502 187.623 C 502 184.373, 492.363 158.488, 486.892 147.041 C 478.946 130.415, 461.383 102, 459.053 102 C 458.744 102, 438.920 121.575, 415 145.500 M 10 324.377 C 10 328.341, 20.073 354.512, 26.982 368.500 C 34.283 383.280, 50.170 408.911, 52.503 409.674 C 53.055 409.855, 73.078 390.427, 96.999 366.501 L 140.491 323 75.246 323 C 20.513 323, 10 323.222, 10 324.377 M 415 366.500 C 438.920 390.425, 458.744 410, 459.053 410 C 461.383 410, 478.946 381.585, 486.892 364.959 C 492.363 353.512, 502 327.627, 502 324.377 C 502 323.222, 491.487 323, 436.754 323 L 371.509 323 415 366.500 M 145.027 415.473 C 118.904 441.601, 101.943 459.291, 102.527 459.799 C 110.290 466.541, 131.098 479.225, 146.477 486.589 C 159.581 492.864, 187.336 502.997, 188.428 501.905 C 188.751 501.583, 188.899 472.220, 188.757 436.655 L 188.500 371.991 145.027 415.473 M 323 436.754 C 323 492.554, 323.206 502, 324.425 502 C 325.208 502, 331.846 499.928, 339.175 497.395 C 354.329 492.158, 372.884 483.596, 385.738 475.909 C 396.204 469.650, 410 460.136, 410 459.177 C 410 458.800, 390.425 438.920, 366.500 415 L 323 371.509 323 436.754" stroke="none" fill="#0052b4" fill-rule="evenodd"/><path d="M 171.503 15.008 C 163.804 17.702, 150.754 23.281, 142.503 27.405 C 128.403 34.453, 103.049 50.291, 102.326 52.503 C 102.145 53.055, 121.573 73.078, 145.499 96.999 L 189 140.491 189 75.246 C 189 13.753, 188.899 10.003, 187.250 10.055 C 186.287 10.085, 179.201 12.314, 171.503 15.008 M 323 75.246 L 323 140.491 366.501 96.999 C 390.427 73.078, 409.853 53.060, 409.671 52.514 C 408.857 50.071, 384.962 35.199, 369.500 27.512 C 354.761 20.185, 328.518 10, 324.377 10 C 323.222 10, 323 20.513, 323 75.246 M 46.714 109.750 C 33.422 128.744, 22.002 151.174, 14.576 172.873 C 12.059 180.229, 10 186.866, 10 187.623 C 10 188.778, 20.513 189, 75.246 189 L 140.491 189 97 145.500 C 73.080 121.575, 53.200 102, 52.823 102 C 52.446 102, 49.697 105.487, 46.714 109.750 M 415 145.500 L 371.509 189 436.754 189 C 491.487 189, 502 188.778, 502 187.623 C 502 184.373, 492.363 158.488, 486.892 147.041 C 478.946 130.415, 461.383 102, 459.053 102 C 458.744 102, 438.920 121.575, 415 145.500 M 10 324.377 C 10 328.341, 20.073 354.512, 26.982 368.500 C 34.283 383.280, 50.170 408.911, 52.503 409.674 C 53.055 409.855, 73.078 390.427, 96.999 366.501 L 140.491 323 75.246 323 C 20.513 323, 10 323.222, 10 324.377 M 415 366.500 C 438.920 390.425, 458.744 410, 459.053 410 C 461.383 410, 478.946 381.585, 486.892 364.959 C 492.363 353.512, 502 327.627, 502 324.377 C 502 323.222, 491.487 323, 436.754 323 L 371.509 323 415 366.500 M 145.027 415.473 C 118.904 441.601, 101.943 459.291, 102.527 459.799 C 110.290 466.541, 131.098 479.225, 146.477 486.589 C 159.581 492.864, 187.336 502.997, 188.428 501.905 C 188.751 501.583, 188.899 472.220, 188.757 436.655 L 188.500 371.991 145.027 415.473 M 323 436.754 C 323 492.554, 323.206 502, 324.425 502 C 325.208 502, 331.846 499.928, 339.175 497.395 C 354.329 492.158, 372.884 483.596, 385.738 475.909 C 396.204 469.650, 410 460.136, 410 459.177 C 410 458.800, 390.425 438.920, 366.500 415 L 323 371.509 323 436.754" stroke="none" fill="#0052b4" fill-rule="evenodd"/><path d="M 171.503 15.008 C 163.804 17.702, 150.754 23.281, 142.503 27.405 C 128.403 34.453, 103.049 50.291, 102.326 52.503 C 102.145 53.055, 121.573 73.078, 145.499 96.999 L 189 140.491 189 75.246 C 189 13.753, 188.899 10.003, 187.250 10.055 C 186.287 10.085, 179.201 12.314, 171.503 15.008 M 323 75.246 L 323 140.491 366.501 96.999 C 390.427 73.078, 409.853 53.060, 409.671 52.514 C 408.857 50.071, 384.962 35.199, 369.500 27.512 C 354.761 20.185, 328.518 10, 324.377 10 C 323.222 10, 323 20.513, 323 75.246 M 46.714 109.750 C 33.422 128.744, 22.002 151.174, 14.576 172.873 C 12.059 180.229, 10 186.866, 10 187.623 C 10 188.778, 20.513 189, 75.246 189 L 140.491 189 97 145.500 C 73.080 121.575, 53.200 102, 52.823 102 C 52.446 102, 49.697 105.487, 46.714 109.750 M 415 145.500 L 371.509 189 436.754 189 C 491.487 189, 502 188.778, 502 187.623 C 502 184.373, 492.363 158.488, 486.892 147.041 C 478.946 130.415, 461.383 102, 459.053 102 C 458.744 102, 438.920 121.575, 415 145.500 M 10 324.377 C 10 328.341, 20.073 354.512, 26.982 368.500 C 34.283 383.280, 50.170 408.911, 52.503 409.674 C 53.055 409.855, 73.078 390.427, 96.999 366.501 L 140.491 323 75.246 323 C 20.513 323, 10 323.222, 10 324.377 M 415 366.500 C 438.920 390.425, 458.744 410, 459.053 410 C 461.383 410, 478.946 381.585, 486.892 364.959 C 492.363 353.512, 502 327.627, 502 324.377 C 502 323.222, 491.487 323, 436.754 323 L 371.509 323 415 366.500 M 145.027 415.473 C 118.904 441.601, 101.943 459.291, 102.527 459.799 C 110.290 466.541, 131.098 479.225, 146.477 486.589 C 159.581 492.864, 187.336 502.997, 188.428 501.905 C 188.751 501.583, 188.899 472.220, 188.757 436.655 L 188.500 371.991 145.027 415.473 M 323 436.754 C 323 492.554, 323.206 502, 324.425 502 C 325.208 502, 331.846 499.928, 339.175 497.395 C 354.329 492.158, 372.884 483.596, 385.738 475.909 C 396.204 469.650, 410 460.136, 410 459.177 C 410 458.800, 390.425 438.920, 366.500 415 L 323 371.509 323 436.754" stroke="none" fill="#0052b4" fill-rule="evenodd"/><path d="M 171.503 15.008 C 163.804 17.702, 150.754 23.281, 142.503 27.405 C 128.403 34.453, 103.049 50.291, 102.326 52.503 C 102.145 53.055, 121.573 73.078, 145.499 96.999 L 189 140.491 189 75.246 C 189 13.753, 188.899 10.003, 187.250 10.055 C 186.287 10.085, 179.201 12.314, 171.503 15.008 M 323 75.246 L 323 140.491 366.501 96.999 C 390.427 73.078, 409.853 53.060, 409.671 52.514 C 408.857 50.071, 384.962 35.199, 369.500 27.512 C 354.761 20.185, 328.518 10, 324.377 10 C 323.222 10, 323 20.513, 323 75.246 M 46.714 109.750 C 33.422 128.744, 22.002 151.174, 14.576 172.873 C 12.059 180.229, 10 186.866, 10 187.623 C 10 188.778, 20.513 189, 75.246 189 L 140.491 189 97 145.500 C 73.080 121.575, 53.200 102, 52.823 102 C 52.446 102, 49.697 105.487, 46.714 109.750 M 415 145.500 L 371.509 189 436.754 189 C 491.487 189, 502 188.778, 502 187.623 C 502 184.373, 492.363 158.488, 486.892 147.041 C 478.946 130.415, 461.383 102, 459.053 102 C 458.744 102, 438.920 121.575, 415 145.500 M 10 324.377 C 10 328.341, 20.073 354.512, 26.982 368.500 C 34.283 383.280, 50.170 408.911, 52.503 409.674 C 53.055 409.855, 73.078 390.427, 96.999 366.501 L 140.491 323 75.246 323 C 20.513 323, 10 323.222, 10 324.377 M 415 366.500 C 438.920 390.425, 458.744 410, 459.053 410 C 461.383 410, 478.946 381.585, 486.892 364.959 C 492.363 353.512, 502 327.627, 502 324.377 C 502 323.222, 491.487 323, 436.754 323 L 371.509 323 415 366.500 M 145.027 415.473 C 118.904 441.601, 101.943 459.291, 102.527 459.799 C 110.290 466.541, 131.098 479.225, 146.477 486.589 C 159.581 492.864, 187.336 502.997, 188.428 501.905 C 188.751 501.583, 188.899 472.220, 188.757 436.655 L 188.500 371.991 145.027 415.473 M 323 436.754 C 323 492.554, 323.206 502, 324.425 502 C 325.208 502, 331.846 499.928, 339.175 497.395 C 354.329 492.158, 372.884 483.596, 385.738 475.909 C 396.204 469.650, 410 460.136, 410 459.177 C 410 458.800, 390.425 438.920, 366.500 415 L 323 371.509 323 436.754" stroke="none" fill="#0052b4" fill-rule="evenodd"/><path d="M 171.503 15.008 C 163.804 17.702, 150.754 23.281, 142.503 27.405 C 128.403 34.453, 103.049 50.291, 102.326 52.503 C 102.145 53.055, 121.573 73.078, 145.499 96.999 L 189 140.491 189 75.246 C 189 13.753, 188.899 10.003, 187.250 10.055 C 186.287 10.085, 179.201 12.314, 171.503 15.008 M 323 75.246 L 323 140.491 366.501 96.999 C 390.427 73.078, 409.853 53.060, 409.671 52.514 C 408.857 50.071, 384.962 35.199, 369.500 27.512 C 354.761 20.185, 328.518 10, 324.377 10 C 323.222 10, 323 20.513, 323 75.246 M 46.714 109.750 C 33.422 128.744, 22.002 151.174, 14.576 172.873 C 12.059 180.229, 10 186.866, 10 187.623 C 10 188.778, 20.513 189, 75.246 189 L 140.491 189 97 145.500 C 73.080 121.575, 53.200 102, 52.823 102 C 52.446 102, 49.697 105.487, 46.714 109.750 M 415 145.500 L 371.509 189 436.754 189 C 491.487 189, 502 188.778, 502 187.623 C 502 184.373, 492.363 158.488, 486.892 147.041 C 478.946 130.415, 461.383 102, 459.053 102 C 458.744 102, 438.920 121.575, 415 145.500 M 10 324.377 C 10 328.341, 20.073 354.512, 26.982 368.500 C 34.283 383.280, 50.170 408.911, 52.503 409.674 C 53.055 409.855, 73.078 390.427, 96.999 366.501 L 140.491 323 75.246 323 C 20.513 323, 10 323.222, 10 324.377 M 415 366.500 C 438.920 390.425, 458.744 410, 459.053 410 C 461.383 410, 478.946 381.585, 486.892 364.959 C 492.363 353.512, 502 327.627, 502 324.377 C 502 323.222, 491.487 323, 436.754 323 L 371.509 323 415 366.500 M 145.027 415.473 C 118.904 441.601, 101.943 459.291, 102.527 459.799 C 110.290 466.541, 131.098 479.225, 146.477 486.589 C 159.581 492.864, 187.336 502.997, 188.428 501.905 C 188.751 501.583, 188.899 472.220, 188.757 436.655 L 188.500 371.991 145.027 415.473 M 323 436.754 C 323 492.554, 323.206 502, 324.425 502 C 325.208 502, 331.846 499.928, 339.175 497.395 C 354.329 492.158, 372.884 483.596, 385.738 475.909 C 396.204 469.650, 410 460.136, 410 459.177 C 410 458.800, 390.425 438.920, 366.500 415 L 323 371.509 323 436.754" stroke="none" fill="#0052b4" fill-rule="evenodd"/><path d="M 171.503 15.008 C 163.804 17.702, 150.754 23.281, 142.503 27.405 C 128.403 34.453, 103.049 50.291, 102.326 52.503 C 102.145 53.055, 121.573 73.078, 145.499 96.999 L 189 140.491 189 75.246 C 189 13.753, 188.899 10.003, 187.250 10.055 C 186.287 10.085, 179.201 12.314, 171.503 15.008 M 323 75.246 L 323 140.491 366.501 96.999 C 390.427 73.078, 409.853 53.060, 409.671 52.514 C 408.857 50.071, 384.962 35.199, 369.500 27.512 C 354.761 20.185, 328.518 10, 324.377 10 C 323.222 10, 323 20.513, 323 75.246 M 46.714 109.750 C 33.422 128.744, 22.002 151.174, 14.576 172.873 C 12.059 180.229, 10 186.866, 10 187.623 C 10 188.778, 20.513 189, 75.246 189 L 140.491 189 97 145.500 C 73.080 121.575, 53.200 102, 52.823 102 C 52.446 102, 49.697 105.487, 46.714 109.750 M 415 145.500 L 371.509 189 436.754 189 C 491.487 189, 502 188.778, 502 187.623 C 502 184.373, 492.363 158.488, 486.892 147.041 C 478.946 130.415, 461.383 102, 459.053 102 C 458.744 102, 438.920 121.575, 415 145.500 M 10 324.377 C 10 328.341, 20.073 354.512, 26.982 368.500 C 34.283 383.280, 50.170 408.911, 52.503 409.674 C 53.055 409.855, 73.078 390.427, 96.999 366.501 L 140.491 323 75.246 323 C 20.513 323, 10 323.222, 10 324.377 M 415 366.500 C 438.920 390.425, 458.744 410, 459.053 410 C 461.383 410, 478.946 381.585, 486.892 364.959 C 492.363 353.512, 502 327.627, 502 324.377 C 502 323.222, 491.487 323, 436.754 323 L 371.509 323 415 366.500 M 145.027 415.473 C 118.904 441.601, 101.943 459.291, 102.527 459.799 C 110.290 466.541, 131.098 479.225, 146.477 486.589 C 159.581 492.864, 187.336 502.997, 188.428 501.905 C 188.751 501.583, 188.899 472.220, 188.757 436.655 L 188.500 371.991 145.027 415.473 M 323 436.754 C 323 492.554, 323.206 502, 324.425 502 C 325.208 502, 331.846 499.928, 339.175 497.395 C 354.329 492.158, 372.884 483.596, 385.738 475.909 C 396.204 469.650, 410 460.136, 410 459.177 C 410 458.800, 390.425 438.920, 366.500 415 L 323 371.509 323 436.754" stroke="none" fill="#0052b4" fill-rule="evenodd"/><path d="M 206 4.579 C 199.675 5.926, 193.262 7.303, 191.750 7.639 L 189 8.250 189 74.871 L 189 141.492 144.592 97.092 L 100.184 52.692 95.993 55.774 C 93.688 57.469, 87.981 62.334, 83.311 66.585 L 74.821 74.314 132.657 132.157 L 190.494 190 174.001 190 L 157.508 190 108.294 140.794 C 81.226 113.730, 58.914 91.793, 58.711 92.044 C 58.509 92.295, 57.063 94.220, 55.498 96.322 L 52.653 100.144 97.072 144.572 L 141.492 189 74.871 189 L 8.250 189 7.641 191.750 C 5.063 203.402, 2.019 218.807, 2.011 220.250 C 2.001 221.906, 7.901 222, 112 222 L 222 222 222 112 L 222 2 219.750 2.065 C 218.512 2.101, 212.325 3.232, 206 4.579 M 290 112 L 290 222 400 222 C 504.099 222, 509.999 221.906, 509.989 220.250 C 509.981 218.807, 506.937 203.402, 504.359 191.750 L 503.750 189 437.129 189 L 370.508 189 414.937 144.563 L 459.366 100.126 455.630 95.313 C 453.576 92.666, 448.700 86.970, 444.795 82.656 L 437.694 74.812 379.847 132.653 L 322 190.494 322 173.993 L 322 157.492 370.955 108.545 C 409.651 69.855, 419.677 59.315, 418.794 58.252 C 418.180 57.512, 416.353 55.964, 414.735 54.811 L 411.792 52.716 367.396 97.104 L 323 141.492 323 74.871 L 323 8.250 320.250 7.641 C 308.598 5.063, 293.193 2.019, 291.750 2.011 C 290.094 2.001, 290 7.901, 290 112 M 2.011 291.750 C 2.019 293.193, 5.063 308.598, 7.641 320.250 L 8.250 323 74.871 323 L 141.492 323 97.063 367.437 L 52.634 411.874 56.370 416.687 C 58.424 419.334, 63.300 425.030, 67.205 429.344 L 74.306 437.188 132.153 379.347 L 190 321.506 190 338.007 L 190 354.508 141.045 403.455 C 102.349 442.145, 92.323 452.685, 93.206 453.748 C 93.820 454.488, 95.647 456.036, 97.265 457.189 L 100.208 459.284 144.604 414.896 L 189 370.508 189 437.129 L 189 503.750 191.750 504.359 C 203.402 506.937, 218.807 509.981, 220.250 509.989 C 221.906 509.999, 222 504.099, 222 400 L 222 290 112 290 C 7.901 290, 2.001 290.094, 2.011 291.750 M 290 400 C 290 504.099, 290.094 509.999, 291.750 509.989 C 293.193 509.981, 308.598 506.937, 320.250 504.359 L 323 503.750 323 437.129 L 323 370.508 367.437 414.937 L 411.874 459.366 416.687 455.630 C 419.334 453.576, 425.030 448.700, 429.344 444.795 L 437.188 437.694 379.347 379.847 L 321.506 322 338.007 322 L 354.508 322 403.455 370.955 C 442.145 409.651, 452.685 419.677, 453.748 418.794 C 454.488 418.180, 456.036 416.353, 457.189 414.735 L 459.284 411.792 414.896 367.396 L 370.508 323 437.129 323 L 503.750 323 504.359 320.250 C 506.937 308.598, 509.981 293.193, 509.989 291.750 C 509.999 290.094, 504.099 290, 400 290 L 290 290 290 400" stroke="none" fill="#f0f0f0" fill-rule="evenodd"/><path d="M 232 0.626 C 229.525 0.847, 226.489 1.254, 225.254 1.532 L 223.009 2.036 222.754 112.268 L 222.500 222.500 112.268 222.754 L 2.036 223.009 1.268 225.754 C 0.267 229.332, 0.267 282.668, 1.268 286.246 L 2.036 288.991 112.268 289.246 L 222.500 289.500 222.754 399.732 L 223.009 509.964 225.754 510.732 C 229.332 511.733, 282.668 511.733, 286.246 510.732 L 288.991 509.964 289.246 399.732 L 289.500 289.500 399.732 289.246 L 509.964 288.991 510.438 286.746 C 511.795 280.318, 512.260 273.689, 512.651 255.166 C 512.944 241.242, 512.752 235.035, 512.040 235.475 C 511.371 235.889, 510.995 234.226, 510.985 230.809 C 510.976 227.889, 510.613 224.939, 510.178 224.254 C 509.557 223.275, 485.876 222.954, 399.444 222.754 L 289.500 222.500 289.246 112.355 C 289.006 8.647, 288.889 2.168, 287.246 1.475 C 285.351 0.677, 239.348 -0.031, 232 0.626 M 371.746 108.754 L 323 157.508 323 173 L 323 188.493 380.059 131.497 L 437.119 74.500 429.309 67.264 C 425.014 63.284, 421.273 60.021, 420.996 60.014 C 420.719 60.006, 398.557 81.939, 371.746 108.754 M 66.934 83.074 L 59.655 91.148 108.574 140.074 L 157.492 189 173.496 188.999 L 189.500 188.999 132.500 132.003 C 101.150 100.655, 75.210 75.005, 74.856 75.004 C 74.502 75.002, 70.937 78.633, 66.934 83.074 M 0.422 256 C 0.422 267.275, 0.568 271.887, 0.746 266.250 C 0.924 260.613, 0.924 251.387, 0.746 245.750 C 0.568 240.113, 0.422 244.725, 0.422 256 M 380.478 379.978 L 437.450 436.956 440.814 433.728 C 442.664 431.953, 446.011 428.325, 448.252 425.667 L 452.326 420.833 403.417 371.917 L 354.508 323 339.007 323 L 323.507 323 380.478 379.978 M 131.657 380.841 L 74.814 437.692 82.481 444.596 C 86.698 448.393, 90.453 451.613, 90.827 451.751 C 91.200 451.889, 113.454 430.050, 140.280 403.220 L 189.054 354.438 188.777 339.214 L 188.500 323.989 131.657 380.841" stroke="none" fill="#d80027" fill-rule="evenodd"/><path d="M 232 0.626 C 229.525 0.847, 226.489 1.254, 225.254 1.532 L 223.009 2.036 222.754 112.268 L 222.500 222.500 112.268 222.754 L 2.036 223.009 1.268 225.754 C 0.267 229.332, 0.267 282.668, 1.268 286.246 L 2.036 288.991 112.268 289.246 L 222.500 289.500 222.754 399.732 L 223.009 509.964 225.754 510.732 C 229.332 511.733, 282.668 511.733, 286.246 510.732 L 288.991 509.964 289.246 399.732 L 289.500 289.500 399.732 289.246 L 509.964 288.991 510.438 286.746 C 511.795 280.318, 512.260 273.689, 512.651 255.166 C 512.944 241.242, 512.752 235.035, 512.040 235.475 C 511.371 235.889, 510.995 234.226, 510.985 230.809 C 510.976 227.889, 510.613 224.939, 510.178 224.254 C 509.557 223.275, 485.876 222.954, 399.444 222.754 L 289.500 222.500 289.246 112.355 C 289.006 8.647, 288.889 2.168, 287.246 1.475 C 285.351 0.677, 239.348 -0.031, 232 0.626 M 371.746 108.754 L 323 157.508 323 173 L 323 188.493 380.059 131.497 L 437.119 74.500 429.309 67.264 C 425.014 63.284, 421.273 60.021, 420.996 60.014 C 420.719 60.006, 398.557 81.939, 371.746 108.754 M 66.934 83.074 L 59.655 91.148 108.574 140.074 L 157.492 189 173.496 188.999 L 189.500 188.999 132.500 132.003 C 101.150 100.655, 75.210 75.005, 74.856 75.004 C 74.502 75.002, 70.937 78.633, 66.934 83.074 M 0.422 256 C 0.422 267.275, 0.568 271.887, 0.746 266.250 C 0.924 260.613, 0.924 251.387, 0.746 245.750 C 0.568 240.113, 0.422 244.725, 0.422 256 M 380.478 379.978 L 437.450 436.956 440.814 433.728 C 442.664 431.953, 446.011 428.325, 448.252 425.667 L 452.326 420.833 403.417 371.917 L 354.508 323 339.007 323 L 323.507 323 380.478 379.978 M 131.657 380.841 L 74.814 437.692 82.481 444.596 C 86.698 448.393, 90.453 451.613, 90.827 451.751 C 91.200 451.889, 113.454 430.050, 140.280 403.220 L 189.054 354.438 188.777 339.214 L 188.500 323.989 131.657 380.841" stroke="none" fill="#d80027" fill-rule="evenodd"/><path d="M 334.453 12.993 C 341.027 15.157, 346.614 16.719, 346.870 16.464 C 347.125 16.209, 347.146 15.994, 346.917 15.986 C 346.688 15.978, 341.799 14.403, 336.054 12.486 C 330.308 10.569, 324.908 9.013, 324.054 9.030 C 323.199 9.046, 327.879 10.830, 334.453 12.993 M 173 13.431 C 160.012 17.974, 152.691 20.948, 151.500 22.164 C 150.950 22.726, 152.300 22.407, 154.500 21.455 C 156.700 20.503, 164.575 17.561, 172 14.917 C 179.425 12.273, 184.825 10.110, 184 10.109 C 183.175 10.109, 178.225 11.604, 173 13.431 M 350 18.199 C 369.326 26.423, 406.950 47.873, 409.617 52.190 C 409.971 52.762, 390.515 73.091, 366.380 97.365 L 322.500 141.500 367.227 97.027 C 391.827 72.567, 411.627 52.285, 411.227 51.955 C 399.157 42.008, 370.567 25.525, 354.213 19.083 C 348.846 16.969, 345.419 16.250, 350 18.199 M 140.500 27.131 C 130.060 32.439, 122.795 36.797, 110.161 45.331 L 99.823 52.315 144.157 96.657 C 168.541 121.046, 188.717 141, 188.992 141 C 189.266 141, 169.747 121.252, 145.615 97.115 C 121.484 72.979, 102.023 52.772, 102.370 52.210 C 103.659 50.124, 126.701 35.529, 138.398 29.389 C 145.054 25.895, 150.050 23.042, 149.500 23.050 C 148.950 23.057, 144.900 24.893, 140.500 27.131 M 48.905 104.750 C 41.723 114.438, 31.461 131.846, 24.900 145.469 C 18.830 158.074, 9.914 181.434, 10.055 184.361 C 10.085 184.988, 12.314 179.201, 15.008 171.503 C 21.090 154.124, 32.484 131.128, 42.510 116 C 46.702 109.675, 50.784 103.834, 51.581 103.020 C 52.855 101.720, 58.409 106.886, 97.266 145.520 L 141.500 189.500 97.004 144.750 C 72.532 120.137, 52.490 100, 52.468 100 C 52.445 100, 50.842 102.138, 48.905 104.750 M 414.898 144.848 L 370.500 189.500 414.727 145.527 C 441.310 119.097, 459.291 101.942, 459.799 102.527 C 471.687 116.215, 488.722 147.886, 497.160 171.988 C 499.761 179.420, 501.915 185.026, 501.945 184.446 C 502.010 183.197, 496.143 165.766, 493.100 158.167 C 486.868 142.607, 472.438 117.123, 462.908 104.848 L 459.296 100.195 414.898 144.848 M 96.999 366.501 C 73.078 390.427, 53.055 409.855, 52.503 409.674 C 50.291 408.951, 34.453 383.597, 27.405 369.497 C 23.281 361.246, 17.702 348.196, 15.008 340.497 C 12.314 332.799, 10.085 326.974, 10.055 327.554 C 9.948 329.594, 16.794 348.745, 21.318 359.062 C 27.916 374.108, 32.096 381.675, 42.761 397.884 L 52.224 412.267 96.612 367.888 C 121.026 343.479, 141 323.394, 141 323.254 C 141 322.553, 137.441 326.051, 96.999 366.501 M 414.996 367.250 C 439.468 391.863, 459.574 412, 459.674 412 C 459.775 412, 464.119 405.588, 469.328 397.750 C 478.435 384.046, 486.748 368.731, 492.533 355 C 496.046 346.662, 503.003 326.063, 502.989 324.047 C 502.982 323.196, 500.732 329.193, 497.988 337.374 C 489.574 362.460, 472.291 395.090, 459.799 409.473 C 459.291 410.058, 441.310 392.903, 414.727 366.473 L 370.500 322.500 414.996 367.250 M 144.298 415.250 L 100.104 459.500 102.683 461.396 C 107.058 464.611, 120.221 473.311, 126.516 477.147 C 138.322 484.341, 164.219 496.427, 166.325 495.725 C 166.879 495.540, 164.625 494.402, 161.316 493.195 C 145.115 487.288, 113.499 469.328, 102.527 459.799 C 101.943 459.291, 119.101 441.404, 145.523 414.977 C 169.706 390.790, 189.266 371, 188.992 371 C 188.717 371, 168.604 390.913, 144.298 415.250 M 366.250 414.504 C 390.313 438.707, 410 458.813, 410 459.185 C 410 460.137, 396.165 469.674, 385.738 475.909 C 372.126 484.049, 353.927 492.351, 337.500 497.914 C 329.250 500.707, 323.252 502.995, 324.170 502.997 C 326.252 503.001, 346.276 496.208, 355 492.539 C 372.488 485.182, 398.476 470.277, 409.152 461.480 L 411.803 459.295 367.152 414.897 L 322.500 370.500 366.250 414.504 M 169 496.853 C 170.897 498.054, 182.967 502.025, 184.415 501.926 C 185.455 501.854, 174.679 497.879, 169.834 496.546 C 168.140 496.081, 167.911 496.165, 169 496.853" stroke="none" fill="#0454b4" fill-rule="evenodd"/><path d="M 222.246 111.746 L 222 221.991 111.750 222.250 L 1.500 222.509 111.781 222.754 C 199.267 222.949, 222.161 222.742, 222.539 221.750 C 222.801 221.063, 222.897 171.225, 222.753 111 L 222.491 1.500 222.246 111.746 M 289.493 112 L 289.500 222.500 399.750 222.507 L 510 222.513 400.004 222.252 L 290.009 221.991 289.748 111.746 L 289.487 1.500 289.493 112 M 371.220 108.280 L 321.948 157.559 322.224 173.785 L 322.500 190.010 380 132.255 L 437.500 74.500 380.250 131.497 L 323 188.493 323 173 L 323 157.508 372.246 108.254 C 399.332 81.164, 421.267 59, 420.992 59 C 420.717 59, 398.320 81.176, 371.220 108.280 M 107.996 140.250 L 157.492 190 173.996 189.777 L 190.500 189.553 174 189.258 L 157.500 188.963 108 139.731 L 58.500 90.500 107.996 140.250 M 111.746 289.748 L 221.991 290.009 222.252 400.004 L 222.513 510 222.507 399.750 L 222.500 289.500 112 289.493 L 1.500 289.487 111.746 289.748 M 289.461 290.250 C 289.199 290.938, 289.103 340.775, 289.247 401 L 289.509 510.500 289.754 400.254 L 290 290.009 400.250 289.750 L 510.500 289.491 400.219 289.246 C 312.733 289.051, 289.839 289.258, 289.461 290.250 M 132 379.745 L 74.500 437.500 131.750 380.503 L 189 323.507 189 339 L 189 354.492 139.751 403.996 L 90.503 453.500 140.277 403.973 L 190.052 354.446 189.776 338.218 L 189.500 321.990 132 379.745 M 379 379.500 C 410.621 411.125, 436.718 437, 436.993 437 C 437.268 437, 411.846 411.350, 380.500 380 L 323.507 323 339 323 L 354.492 323 403.996 372.250 L 453.500 421.500 404.004 371.750 L 354.508 322 338.007 322 L 321.507 322 379 379.500" stroke="none" fill="#f2eff0" fill-rule="evenodd"/></svg>